<svg xmlns="http://www.w3.org/2000/svg" width="1920px" height="100%" preserveAspectRatio="none" viewBox="0 0 1920 212.3" fill="rgba(255, 126, 0, 1)">
                                        <defs>
                                            <style>
                                                .cls-1 {
                                                    opacity: 0.1;
                                                }
                                                .cls-2 {
                                                    opacity: 0.3;
                                                }
                                            </style>
                                        </defs>
                                        <path class="cls-1" d="M1920,84.7V203H0V18.4a244.5,244.5,0,0,1,32.4-2.2A242.2,242.2,0,0,1,209.1,92.5,243.1,243.1,0,0,1,492.4,145a165.3,165.3,0,0,1,244.1,1.2,74,74,0,0,1,132.6-.6,165.3,165.3,0,0,1,240.6-35.8,242.9,242.9,0,0,1,339.4,26.9,57.6,57.6,0,0,1,83.2,9.3,165.5,165.5,0,0,1,200-69.3,94,94,0,0,1,187.6,8Z" transform="translate(0 9.3)"></path>
                                        <path class="cls-2" d="M1920,94.4V203H0V28.2A244.5,244.5,0,0,1,32.4,26a242.2,242.2,0,0,1,176.6,76.2,243.1,243.1,0,0,1,283.4,52.5,165.3,165.3,0,0,1,244.1,1.2,74,74,0,0,1,132.6-.6,165.3,165.3,0,0,1,240.6-35.8,242.9,242.9,0,0,1,339.4,26.9,57.6,57.6,0,0,1,83.2,9.3,165.5,165.5,0,0,1,200-69.3,94,94,0,0,1,187.6,8Z" transform="translate(0 9.3)"></path>
                                        <path class="cls-3" d="M1920,104.2V203H0V37.9a244.5,244.5,0,0,1,32.4-2.2,242.2,242.2,0,0,1,176.6,76.2,243.1,243.1,0,0,1,283.4,52.5,165.3,165.3,0,0,1,244.1,1.2,74,74,0,0,1,132.6-.6,165.3,165.3,0,0,1,240.6-35.8,242.9,242.9,0,0,1,339.4,26.9,57.6,57.6,0,0,1,83.2,9.3,165.5,165.5,0,0,1,200-69.3,94,94,0,0,1,187.6,8Z" transform="translate(0 9.3)"></path>
                                    </svg>