<svg xmlns="http://www.w3.org/2000/svg" xmlns:xlink="http://www.w3.org/1999/xlink" version="1.1" x="0px" y="0px" viewBox="0 0 64 64" enable-background="new 0 0 64 64" xml:space="preserve" preserveAspectRatio="none" width="100%" height="100%" class="" fill="rgba(255, 255, 255, 1.0)">
                                        <g display="none"><rect x="-306.495" y="-10.779" display="inline" width="787" height="375.042"></rect></g>
                                        <g display="none">
                                            <g display="inline">
                                                <path d="M60,64H4c-2.2,0-4-1.8-4-4V4c0-2.2,1.8-4,4-4h56c2.2,0,4,1.8,4,4v56C64,62.2,62.2,64,60,64z"></path>
                                                <line stroke="#FFFFFF" stroke-width="6" stroke-miterlimit="10" x1="12.5" y1="15.333" x2="51.5" y2="15.333"></line>
                                                <line stroke="#FFFFFF" stroke-width="6" stroke-miterlimit="10" x1="12.5" y1="32" x2="51.5" y2="32"></line>
                                                <line stroke="#FFFFFF" stroke-width="6" stroke-miterlimit="10" x1="12.5" y1="48.667" x2="51.5" y2="48.667"></line>
                                            </g>
                                        </g>
                                        <g display="none">
                                            <path display="inline" stroke="#000000" stroke-width="2" stroke-miterlimit="10" d="M59.127,62.969H4.873   C2.743,62.969,1,61.226,1,59.096V4.904c0-2.13,1.743-3.873,3.873-3.873h54.254c2.13,0,3.873,1.743,3.873,3.873v54.191   C63,61.226,61.257,62.969,59.127,62.969z"></path>
                                            <rect x="13.109" y="12.967" display="inline" stroke="#000000" stroke-width="2" stroke-miterlimit="10" width="37.781" height="5.807"></rect>
                                            <rect x="13.109" y="29.097" display="inline" stroke="#000000" stroke-width="2" stroke-miterlimit="10" width="37.781" height="5.807"></rect>
                                            <rect x="13.109" y="45.227" display="inline" stroke="#000000" stroke-width="2" stroke-miterlimit="10" width="37.781" height="5.807"></rect>
                                        </g>
                                        <g>
                                            <g>
                                                <path d="M4.873,63.969h54.254c2.687,0,4.873-2.187,4.873-4.873V4.904c0-2.687-2.187-4.873-4.873-4.873H4.873    C2.187,0.031,0,2.217,0,4.904v54.191C0,61.782,2.187,63.969,4.873,63.969z M13.109,12.967h37.781v5.807H13.109V12.967z     M13.109,29.097h37.781v5.807H13.109V29.097z M13.109,45.227h37.781v5.807H13.109V45.227z"></path>
                                            </g>
                                        </g>
                                        <g display="none">
                                            <path display="inline" stroke="#000000" stroke-width="2" stroke-miterlimit="10" d="M59.127,62.969H4.873   C2.743,62.969,1,61.226,1,59.096V4.904c0-2.13,1.743-3.873,3.873-3.873h54.254c2.13,0,3.873,1.743,3.873,3.873v54.191   C63,61.226,61.257,62.969,59.127,62.969z"></path>
                                            <rect x="13.109" y="12.967" display="inline" stroke="#000000" stroke-width="2" stroke-miterlimit="10" width="37.781" height="5.807"></rect>
                                            <rect x="13.109" y="29.097" display="inline" stroke="#000000" stroke-width="2" stroke-miterlimit="10" width="37.781" height="5.807"></rect>
                                            <rect x="13.109" y="45.227" display="inline" stroke="#000000" stroke-width="2" stroke-miterlimit="10" width="37.781" height="5.807"></rect>
                                        </g>
                                    </svg>